<svg width="115" height="114" viewBox="0 0 115 114" fill="none" xmlns="http://www.w3.org/2000/svg">
<path d="M65.798 106.889L31.2077 14.4553L32.4741 13.1689L67.3995 106.798L65.798 106.889Z" fill="#C4BEB4" stroke="#C4BEB4" stroke-width="7" stroke-miterlimit="10"/>
<path fill-rule="evenodd" clip-rule="evenodd" d="M60.3925 38.5216L84.822 103.006L79.3426 104.652L58.1802 49.2567L36.4559 72.138L4.52559 56.8704L5.75827 51.0254L35.1133 65.1436L60.3925 38.5216Z" fill="#C4BEB4" stroke="#C4BEB4" stroke-width="3" stroke-miterlimit="10"/>
<path d="M61.5098 5.8418C34.5252 3.806 10.3595 23.1349 6.64713 50.3193C2.86828 78.3846 22.7302 104.357 50.8017 108.136C78.8733 111.915 104.851 92.0586 108.63 63.9933C112.409 35.928 92.5469 9.95521 64.4754 6.17627C63.4841 6.10148 62.5011 5.91658 61.5098 5.8418ZM53.6509 110.012C52.6597 109.938 51.5582 109.855 50.5753 109.67C21.6226 105.824 1.26815 79.0391 5.11346 50.0929C8.95876 21.1466 35.6473 0.679085 64.7018 4.64294C93.7563 8.60679 114.119 35.2818 110.164 64.2198C106.393 92.175 81.4065 112.106 53.6509 110.012Z" fill="#C4BEB4" stroke="#C4BEB4" stroke-width="7" stroke-miterlimit="10"/>
</svg>


