<svg width="114" height="114" viewBox="0 0 114 114" fill="none" xmlns="http://www.w3.org/2000/svg">
<path d="M68.872 105.972L27.426 16.402L28.592 15.024L70.462 105.76L68.872 105.972Z" fill="#FFD400" stroke="#FFD400" stroke-width="7" stroke-miterlimit="10"/>
<path fill-rule="evenodd" clip-rule="evenodd" d="M58.3386 38.2045L87.5499 100.668L82.2099 102.722L56.9401 49.0756L36.9987 73.5264L4.01031 60.7041L4.7998 54.783L35.1338 66.6528L58.3386 38.2045Z" fill="#FFD400" stroke="#FFD400" stroke-width="3" stroke-miterlimit="10"/>
<path d="M56.9942 5.53327C29.9329 5.53327 7.28979 26.6254 5.63298 54.012C3.97616 82.2821 25.7357 106.687 54.012 108.344C82.2883 110 106.699 88.2453 108.355 59.9752C110.012 31.7052 88.2528 7.30015 59.9765 5.6437C58.9824 5.6437 57.9883 5.53327 56.9942 5.53327ZM56.9942 110C56.0001 110 54.8956 110 53.9015 109.89C24.7416 108.233 2.4298 83.0551 4.08662 53.9016C5.74343 24.7481 30.8166 2.3308 60.087 4.09768C89.3573 5.86456 111.669 30.9322 109.902 60.0857C108.245 88.2453 84.8287 110 56.9942 110Z" fill="#FFD400" stroke="#FFD400" stroke-width="7" stroke-miterlimit="10"/>
</svg>
